<svg width="1301" height="631" viewBox="0 0 1301 631" fill="none" xmlns="http://www.w3.org/2000/svg">
<path fill-rule="evenodd" clip-rule="evenodd" d="M1300.62 6.09603C1266.86 -0.362665 1219.45 5.39569 1151.62 37.0003C1013.19 101.501 950.49 67.4514 891.36 35.3428C861.607 19.1865 832.759 3.52171 795.625 1.15101C716.599 -3.89404 664.884 17.566 615.191 38.1862C564.903 59.0541 516.686 79.0618 444.335 69.8676C359.123 59.0391 316.11 40.945 280.682 26.0417C247.837 12.2252 221.511 1.15101 174.125 1.15101C98.1899 1.15101 42.9014 22.0076 0.625 44.0922V598.001C0.625 616.226 15.3996 631.001 33.625 631.001H1267.62C1285.85 631.001 1300.62 616.226 1300.62 598.001V6.09603Z" fill="#8D2732"/>
</svg>
