<svg width="368" height="416" viewBox="0 0 368 416" fill="none" xmlns="http://www.w3.org/2000/svg">
<path fill-rule="evenodd" clip-rule="evenodd" d="M7.66187 2.16944C20.2463 4.28809 28.9351 10.2681 39.2612 17.375C53.2049 26.9716 70.1339 38.6229 103.671 45.5956C132.147 51.516 151.124 38.6325 170.916 25.1951C190.474 11.9172 210.828 -1.90152 241.931 1.34713C256.546 2.87369 267.9 12.9607 279.61 23.3642C300.781 42.1738 323.118 62.018 368 34.1736V383C368 401.226 353.225 416 335 416H33C14.7746 416 0 401.226 0 383V23.3126C0 15.2679 2.87857 7.89562 7.66187 2.16944Z" fill="#8D2732"/>
</svg>
