<svg width="1440" height="893" viewBox="0 0 1440 893" fill="none" xmlns="http://www.w3.org/2000/svg">
<path d="M207.578 596.355C141.705 593.333 163.466 575.107 113.474 553.859C63.481 532.611 19.6117 558.575 -2.68594 553.859C-24.725 549.198 -21.3107 576.996 -21.3107 576.996L-136 673.791L-89 1180L933.943 1048.7L1522.58 1005.26L1626 699.288L1611.3 461.785L1470.14 0C1452.66 12.1191 1308.4 57.133 1308.4 179.426C1308.4 264.044 1333.97 316.016 1369.32 387.85L1370.15 389.543C1405.93 462.258 1362.8 556.22 1293.21 519.863C1223.61 483.505 1113.33 435.816 1043.73 539.222C974.134 642.628 785.514 493.421 665.845 596.355C546.176 699.288 513.416 571.33 394.315 553.859C264.137 534.764 289.919 600.132 207.578 596.355Z" fill="#8D2732"/>
</svg>
